<svg width="300" height="300" viewBox="0 0 300 300" fill="none" xmlns="http://www.w3.org/2000/svg">
<path d="M299 150C299 232.29 232.29 299 150 299C67.7096 299 1 232.29 1 150C1 67.7096 67.7096 1 150 1C232.29 1 299 67.7096 299 150Z" fill="#EDEDED" stroke="#D2D6DA" stroke-width="2"/>
<g clip-path="url(#clip0)">
<path d="M201.202 127.859C201.202 155.107 178.838 177.217 151.225 177.217C123.613 177.217 101.249 155.107 101.249 127.859C101.249 100.61 123.613 78.5 151.225 78.5C178.838 78.5 201.202 100.61 201.202 127.859Z" fill="white" stroke="#E6E6E6" stroke-width="2"/>
<path d="M261.303 244.872C236.434 274.4 195.06 296.5 148.727 296.5C125.482 296.5 102.207 289.678 82.2454 279.423C62.5224 269.291 46.104 255.842 36.1757 242.412C57.3358 202.382 99.7642 176.663 148.727 176.663C197.638 176.663 240.119 204.808 261.303 244.872Z" fill="white" stroke="#E5E5E5" stroke-width="2"/>
</g>
<defs>
<clipPath id="clip0">
<rect width="227.5" height="220" fill="white" transform="translate(35 75)"/>
</clipPath>
</defs>
</svg>
